<?xml version="1.0" encoding="iso-8859-1"?>
<!-- Generator: Adobe Illustrator 19.2.0, SVG Export Plug-In . SVG Version: 6.00 Build 0)  -->
<svg xmlns="http://www.w3.org/2000/svg" xmlns:xlink="http://www.w3.org/1999/xlink" version="1.1" id="Layer_1" x="0px" y="0px" viewBox="0 0 40 40" style="enable-background:new 0 0 40 40;" xml:space="preserve">
<path style="fill:none;stroke:#4788C7;stroke-width:2;stroke-linecap:round;stroke-miterlimit:10;" d="M2,20c0-9.941,8.059-18,18-18  c7.111,0,13.259,4.124,16.183,10.11"/>
<path style="fill:none;stroke:#4788C7;stroke-width:2;stroke-linecap:round;stroke-miterlimit:10;" d="M38,20  c0,9.941-8.059,18-18,18c-7.11,0-13.257-4.122-16.182-10.107"/>
<g>
	<path style="fill:#4788C7;" d="M1.336,16.5c-0.091,0.486-0.171,0.976-0.225,1.474c-0.009,0.089-0.014,0.178-0.022,0.267   C1.034,18.821,1,19.406,1,20s0.034,1.179,0.089,1.759c0.008,0.089,0.013,0.179,0.022,0.267c0.054,0.498,0.134,0.988,0.225,1.474   c0.039,0.21,0.098,0.413,0.144,0.62L5.909,16H2.884L1.336,16.5z"/>
	<path style="fill:#4788C7;" d="M38.664,23.5C38.756,23.014,39,20.594,39,20s-0.034-1.179-0.089-1.759   c-0.008-0.089-0.013-0.179-0.022-0.267c-0.054-0.498-0.134-0.988-0.225-1.474c-0.047-0.25-0.115-0.491-0.171-0.737L34,24h3.116   L38.664,23.5z"/>
</g>
<g>
	<path style="fill:#DFF0FE;" d="M27.143,25.214c-1.3,0-2.356-1.058-2.356-2.357s1.057-2.357,2.356-2.357   c1.963,0,2.357,0.538,2.357,1.405C29.5,23.319,28.335,25.214,27.143,25.214z"/>
	<g>
		<path style="fill:#4788C7;" d="M27.143,21C29,21,29,21.481,29,21.905c0,1.234-1.041,2.81-1.857,2.81    c-1.024,0-1.857-0.833-1.857-1.857C25.286,21.833,26.119,21,27.143,21 M27.143,20c-1.578,0-2.857,1.279-2.857,2.857    s1.279,2.857,2.857,2.857c1.578,0,2.857-2.232,2.857-3.81C30,20.327,28.721,20,27.143,20L27.143,20z"/>
	</g>
</g>
<g>
	<path style="fill:#DFF0FE;" d="M12.857,25.214c-1.192,0-2.357-1.895-2.357-3.31c0-0.867,0.395-1.405,2.357-1.405   c1.3,0,2.356,1.057,2.356,2.357S14.157,25.214,12.857,25.214z"/>
	<g>
		<path style="fill:#4788C7;" d="M12.857,21c1.024,0,1.857,0.833,1.857,1.857c0,1.024-0.833,1.857-1.857,1.857    c-0.816,0-1.857-1.575-1.857-2.81C11,21.481,11,21,12.857,21 M12.857,20C11.279,20,10,20.327,10,21.905    c0,1.578,1.279,3.81,2.857,3.81c1.578,0,2.857-1.279,2.857-2.857S14.435,20,12.857,20L12.857,20z"/>
	</g>
</g>
<g>
	<g>
		<path style="fill:#FFFFFF;" d="M20,33.5c-0.604,0-1.172-0.218-1.642-0.63l-0.091-0.08l-0.116-0.03    C14.824,31.916,12.5,28.93,12.5,25.5v-9.298c0-1.827,1.486-3.313,3.312-3.313h8.375c1.826,0,3.313,1.486,3.313,3.313V25.5    c0,3.43-2.324,6.416-5.651,7.26l-0.116,0.03l-0.091,0.08C21.172,33.282,20.604,33.5,20,33.5z"/>
	</g>
	<g>
		<path style="fill:#4788C7;" d="M24.187,13.389c1.551,0,2.813,1.262,2.813,2.813V25.5c0,3.201-2.169,5.987-5.275,6.776    l-0.233,0.059l-0.181,0.159C21.048,32.725,20.608,33,20,33s-1.048-0.275-1.311-0.506l-0.181-0.159l-0.233-0.059    C15.169,31.487,13,28.701,13,25.5v-9.298c0-1.551,1.262-2.813,2.813-2.813H24.187 M24.187,12.389h-8.375    c-2.106,0-3.813,1.707-3.813,3.813V25.5c0,3.737,2.566,6.866,6.029,7.745C18.557,33.709,19.242,34,20,34s1.443-0.291,1.971-0.755    C25.434,32.366,28,29.237,28,25.5v-9.298C28,14.096,26.293,12.389,24.187,12.389L24.187,12.389z"/>
	</g>
</g>
<g>
	<path style="fill:#B6DCFE;" d="M27.5,23.5V20c0-3.734-3.258-4.711-3.291-4.72l-0.286-0.083l-0.209,0.213   c-0.02,0.02-2.128,2.089-6.563,2.089c-1.392,0-4.65,0-4.65,3.5v2.5h-0.179c-0.436-0.982-1.821-4.332-1.821-7.188   c0-5.271,3.617-8.812,9-8.812c3.839,0,4.992,2.585,5.039,2.695l0.131,0.303L25,10.5c1.671,0,4.5,1.162,4.5,5.515   c0,2.623-1.407,6.393-1.838,7.485H27.5z"/>
	<g>
		<path style="fill:#4788C7;" d="M19.5,8c3.483,0,4.538,2.297,4.577,2.385L24.334,11H25c1.845,0,4,1.313,4,5.015    c0,1.536-0.507,3.498-1,5.043V20c0-3.286-2.39-4.839-3.653-5.201l-0.568-0.155l-0.416,0.411C23.282,15.135,21.348,17,17.15,17    C15.741,17,12,17,12,21v0.314c-0.491-1.422-1-3.305-1-5.003C11,11.34,14.416,8,19.5,8 M19.5,7c-5.819,0-9.5,3.981-9.5,9.311    C10,19.842,12,24,12,24h1c0,0,0-2.029,0-3c0-2.668,2.024-3,4.15-3c4.73,0,6.922-2.24,6.922-2.24S27,16.599,27,20c0,1.069,0,4,0,4    h1c0,0,2-4.768,2-7.985C30,11.498,27.123,10,25,10C25,10,23.747,7,19.5,7L19.5,7z"/>
	</g>
</g>
</svg>
